<svg version="1" xmlns="http://www.w3.org/2000/svg" width="682.667" height="682.667" viewBox="0 0 512.000000 512.000000"><path d="M175.8 34c-11.9 4.5-20 14.5-21.6 26.7-.4 3.2-.7 36.1-.7 73.1v67.3l-2.5-.7c-13.6-3.5-30-2.2-42 3.4-7.6 3.5-17.6 13.8-22.3 22.9-2.1 4-3.8 7.6-3.9 8 0 .5-.2 1.2-.4 1.8-.2.5-2.4 6.8-4.8 14-2.5 7.1-7.9 22.9-12.1 35-4.2 12.1-8 23.1-8.5 24.5-.4 1.4-5.1 14.9-10.3 30-22 63.7-28 81-30.7 89-5.5 16.1-2.9 31 7 40.8 2.4 2.3 6.8 5.4 9.9 6.9 4.7 2.2 7 2.6 14.6 2.7 11.8.1 19.3-2.6 26.2-9.4 6.8-6.7 9.4-12.2 15.8-33.5 1.5-5 3.6-11.7 4.6-15l1.9-6 35.8.2c19.6.1 36.9.2 38.3.2 2.4.1 2.8 1 7.8 16.8 6.1 19.6 8.4 25.3 12.1 30.8 7.3 10.6 16 15.6 28.2 16.1 22.9.9 38.3-14.3 37.3-37.1-.3-8.4-.1-7.7-21-67-16.4-46.5-20.7-59.1-20.9-60.4-.1-1.2 4.5-1.4 27.7-1.6 15.2-.1 27.7.1 27.8.4 0 .3.2 1.3.3 2.1.2.8.6 4 .9 7 .3 3 1.3 8.6 2.2 12.5 12.1 53.4 50.7 92.4 102.1 103 18.4 3.8 43.5 3.9 59.4.3 2.5-.5 5.2-1.1 6.1-1.3 6-1.2 16.7-5.2 24.4-9 17.5-8.7 28.2-18.7 32.5-30.2 4-10.6 1.6-24.3-5.7-32.9-5.7-6.7-15-10.4-24.6-9.8-7.4.4-12.9 2.3-20.7 7.2-7 4.5-16.2 9.1-20.3 10.3-7.6 2.2-24.6 3-32.7 1.6-20.6-3.7-37.5-16.4-46.3-34.9-6.6-13.7-8.2-21.4-8.2-39.3v-15l4.8-6.7c5.7-8 9.9-16.9 12.2-26.3 1.8-7.4 3.5-9.6 12.3-15.7 10.8-7.5 22.8-10.7 39-10.4 14.2.2 21.1 2.3 35.2 10.4 12.7 7.4 18.9 9.5 27.3 9.4 11.8-.2 21.7-6.4 26.9-17.1 1.7-3.5 2.3-6.6 2.5-13.1.1-7.5-.2-9.2-2.7-14.7-4.9-10.7-15.6-20.2-31.6-28.2-7.2-3.6-20.6-8.5-26.5-9.6-10.8-2.2-17.5-2.8-31-3-18.2-.3-27.4.9-45.4 5.9-1.9.6-5.1 1.8-14.7 5.8l-9.7 4-6.1-5.1c-3.4-2.8-6.6-5.1-7.1-5.1-.6 0 .8-2.1 3.1-4.7 7.7-8.8 13.5-21.4 15.8-34.1 1-5.5.8-22-.3-28.7-2-12.5-7.1-25.3-13.5-33.9-1.6-2.1-10.9-11.5-13.1-13.1-8.3-6.2-21.3-12.1-32.9-15-14.8-3.6-23.9-4.2-63.5-4.3-34.9 0-39.5.2-43.7 1.8zm84.9 64.4c18.2 5.7 19.2 25 1.6 32.7-2.3 1-5.9 2.1-8 2.5-5.9 1.1-35.4 1-36.1-.1-.7-1.1-1.1-35.6-.4-36.9.8-1.5 37.1 0 42.9 1.8zm-.2 101.6c13.8 3.5 20.8 11.5 20.8 23.6-.1 10.8-6.5 19-18.5 23.5-5.5 2-7.9 2.2-25.6 2.3l-19.6.1-.1-25c-.1-14.4.3-25.3.8-25.6 1.7-1.2 37-.2 42.2 1.1zm-117 127l8.1 24.5-8.2.3c-4.6.1-12.3.1-17.2 0l-8.9-.3 7.9-24.5c9.8-30.3 8.9-27.9 9.6-26 .4.8 4.3 12.5 8.7 26z"/></svg>